HIERARCHY
ROOT root
{
	OFFSET 0.000000 0.000000 0.000000
	CHANNELS 6 Xposition Yposition Zposition Zrotation Yrotation Xrotation
	JOINT lhip
	{
		OFFSET 0.058581 -0.082280 -0.017664
		CHANNELS 3 Zrotation Yrotation Xrotation
		JOINT lknee
		{
			OFFSET 0.043451 -0.386469 0.008037
			CHANNELS 3 Zrotation Yrotation Xrotation
			JOINT lankle
			{
				OFFSET -0.014790 -0.426874 -0.037428
				CHANNELS 3 Zrotation Yrotation Xrotation
				JOINT ltoe
				{
					OFFSET 0.041054 -0.060286 0.122042
					CHANNELS 3 Zrotation Yrotation Xrotation
					End Site
					{
						OFFSET 0.000000 0.000000 0.000000
					}
				}
			}
		}
	}
	JOINT rhip
	{
		OFFSET -0.060310 -0.090513 -0.013543
		CHANNELS 3 Zrotation Yrotation Xrotation
		JOINT rknee
		{
			OFFSET -0.043257 -0.383688 -0.004843
			CHANNELS 3 Zrotation Yrotation Xrotation
			JOINT rankle
			{
				OFFSET 0.019056 -0.420046 -0.034562
				CHANNELS 3 Zrotation Yrotation Xrotation
				JOINT rtoe
				{
					OFFSET -0.034840 -0.062106 0.130323
					CHANNELS 3 Zrotation Yrotation Xrotation
					End Site
					{
						OFFSET 0.000000 0.000000 0.000000
					}
				}
			}
		}
	}
	JOINT lowerback
	{
		OFFSET 0.004439 0.124404 -0.038385
		CHANNELS 3 Zrotation Yrotation Xrotation
		JOINT upperback
		{
			OFFSET 0.004488 0.137956 0.026820
			CHANNELS 3 Zrotation Yrotation Xrotation
			JOINT chest
			{
				OFFSET -0.002265 0.056032 0.002855
				CHANNELS 3 Zrotation Yrotation Xrotation
				JOINT lowerneck
				{
					OFFSET -0.013390 0.211636 -0.033468
					CHANNELS 3 Zrotation Yrotation Xrotation
					JOINT upperneck
					{
						OFFSET 0.010113 0.088937 0.050410
						CHANNELS 3 Zrotation Yrotation Xrotation
						End Site
						{
							OFFSET 0.000000 0.000000 0.000000
						}
					}
				}
				JOINT lclavicle
				{
					OFFSET 0.071702 0.114000 -0.018898
					CHANNELS 3 Zrotation Yrotation Xrotation
					JOINT lshoulder
					{
						OFFSET 0.122921 0.045205 -0.019046
						CHANNELS 3 Zrotation Yrotation Xrotation
						JOINT lelbow
						{
							OFFSET 0.255332 -0.015649 -0.022946
							CHANNELS 3 Zrotation Yrotation Xrotation
							JOINT lwrist
							{
								OFFSET 0.265709 0.012698 -0.007375
								CHANNELS 3 Zrotation Yrotation Xrotation
								End Site
								{
									OFFSET 0.000000 0.000000 0.000000
								}
							}
						}
					}
				}
				JOINT rclavicle
				{
					OFFSET -0.082954 0.112472 -0.023707
					CHANNELS 3 Zrotation Yrotation Xrotation
					JOINT rshoulder
					{
						OFFSET -0.113228 0.046853 -0.008472
						CHANNELS 3 Zrotation Yrotation Xrotation
						JOINT relbow
						{
							OFFSET -0.260127 -0.014369 -0.031269
							CHANNELS 3 Zrotation Yrotation Xrotation
							JOINT rwrist
							{
								OFFSET -0.269108 0.006794 -0.006027
								CHANNELS 3 Zrotation Yrotation Xrotation
								End Site
								{
									OFFSET 0.000000 0.000000 0.000000
								}
							}
						}
					}
				}
			}
		}
	}
}
MOTION
Frames: 17
Frame Time: 0.033333
1.330304 1.042326 1.025608 -93.504465 -5.434999 78.079983 3.803293 -8.877867 -36.119205 -1.705339 0.873007 12.157284 -0.722844 7.050051 -12.866753 0.000000 -0.000000 0.000000 -1.069362 -1.446223 17.796380 -3.492975 15.604575 2.967328 -1.775922 -4.828601 -19.901645 0.000000 -0.000000 0.000000 2.389354 11.932064 16.877369 -4.121127 1.032063 1.289598 -3.099368 5.250436 1.666133 2.224006 1.100622 -3.012677 -2.681101 -5.427742 6.030107 -24.447607 -1.907905 -0.007276 -55.455904 4.281795 12.731116 4.292648 -9.821759 10.700443 -8.848238 -8.421089 -11.878204 14.198035 20.816576 -5.835072 33.332272 40.695014 -1.831661 -16.320104 10.457712 -26.396269 -0.622918 8.556416 -19.626376 
1.299882 1.041584 1.020971 -93.733381 -5.385142 77.698241 3.779366 -8.256930 -37.638995 -1.123158 1.840017 9.754405 -1.188790 6.721614 -9.849325 0.000000 -0.000000 0.000000 -1.439569 -1.730885 20.543574 -3.681378 16.282540 2.314147 -1.913633 -4.544104 -20.862084 0.000000 -0.000000 0.000000 2.765840 12.258390 17.146026 -4.618331 0.904011 1.338468 -3.222638 5.692884 2.124330 2.560624 0.786401 -3.070168 -2.302626 -5.513973 5.463278 -23.335100 -1.059643 0.181647 -55.560862 7.261489 11.794043 4.491332 -7.835404 11.542481 -9.989102 -8.436601 -11.240402 12.223983 21.370250 -6.817864 30.061612 42.755102 -5.104421 -16.084990 10.778194 -26.883899 -0.170491 8.512022 -18.401825 
1.269036 1.041407 1.016327 -94.486632 -5.311993 77.052383 4.180500 -8.340825 -37.477696 -0.847299 1.980687 8.497200 -1.768058 6.917827 -8.077870 0.000000 -0.000000 0.000000 -1.852769 -1.777764 23.408718 -3.600616 17.330770 2.023154 -2.088955 -4.719617 -21.681613 0.000000 -0.000000 0.000000 2.988344 12.996334 17.316342 -4.802970 1.274809 2.163657 -3.159626 5.903193 2.141849 2.777517 0.034743 -2.508577 -1.997861 -5.524182 4.433824 -22.845028 -0.558242 0.491412 -55.567944 9.620662 10.943459 5.223238 -6.299156 11.422800 -9.982976 -8.223694 -10.556089 10.564569 21.983428 -7.678735 26.885738 43.561242 -7.531879 -15.902605 11.471342 -27.026194 -0.592928 8.516242 -18.398868 
1.228721 1.040744 1.009971 -95.398803 -4.822890 76.768598 4.388216 -8.261086 -36.077601 -0.739214 0.591367 7.701364 -1.914286 6.166735 -4.742803 0.000000 -0.000000 0.000000 -2.241868 -2.205007 26.199384 -3.430668 18.497416 2.148116 -1.889757 -4.333766 -22.251836 0.000000 -0.000000 0.000000 3.417244 13.423719 16.905102 -4.895820 1.614963 2.664071 -3.133658 6.203950 2.321500 2.987738 -0.617984 -1.668809 -1.913111 -5.386163 3.524270 -22.470827 0.485513 0.545174 -55.451864 11.903392 9.862313 5.828447 -3.633981 11.109349 -9.863221 -7.120600 -10.600129 9.558716 22.260348 -8.210769 24.178869 44.791881 -9.805268 -15.570988 12.017524 -26.599085 -0.844394 7.908591 -17.322912 
1.204164 1.040367 1.006400 -95.819815 -4.337568 76.904306 3.984477 -7.863789 -34.645832 -0.425864 -0.569130 7.266281 -2.934569 5.560182 -3.241117 0.000000 -0.000000 0.000000 -2.155834 -2.454727 27.159434 -3.332114 18.776416 3.087812 -1.787214 -3.570740 -22.346945 0.000000 -0.000000 0.000000 3.531257 13.520474 16.404913 -4.809678 1.826098 2.532422 -3.018962 6.366958 2.221394 3.281425 -0.572711 -0.761243 -2.034305 -5.227701 3.672758 -22.307442 1.152173 0.549107 -55.407912 13.082551 9.083068 6.137040 -2.318725 10.557387 -10.075521 -6.801685 -10.070117 9.369841 22.347609 -8.251207 23.678480 45.291995 -10.354051 -15.474178 11.961720 -25.901295 -0.767037 8.146091 -17.070220 
1.170838 1.039123 1.001370 -96.351337 -3.951136 77.733187 3.447151 -7.614101 -31.967933 -0.486510 -0.889581 5.590596 -2.823374 6.062617 -1.878086 0.000000 -0.000000 0.000000 -2.260190 -2.233232 27.681542 -2.784831 18.990285 4.492708 -1.109614 -2.744748 -22.340696 0.000000 -0.000000 0.000000 3.114695 13.418888 14.400976 -4.613447 2.020024 3.101179 -2.954870 6.627903 1.929910 3.604974 -0.612467 0.281579 -2.062269 -5.157441 3.390436 -22.137946 2.128023 0.682774 -55.402674 14.402393 8.623495 6.309716 -1.841431 9.751979 -9.618562 -6.309835 -9.841352 9.861356 22.254204 -7.956629 23.683055 46.207034 -10.516876 -15.347311 12.146722 -25.367286 -0.457778 7.998903 -17.078556 
1.135776 1.036997 0.995188 -97.363081 -3.118829 79.029898 3.445127 -7.715941 -29.043974 0.092295 0.213446 4.249861 -3.713531 7.140140 -1.807794 0.000000 -0.000000 0.000000 -1.862373 -1.875927 27.758967 -2.633456 18.953509 5.977713 -0.175380 -1.495232 -22.376096 0.000000 -0.000000 0.000000 3.137993 13.219967 10.324297 -4.347572 2.467524 6.952708 -3.118327 6.679655 -0.232105 3.773093 -0.989131 1.991873 -2.458184 -3.701635 2.531046 -21.350577 1.869565 1.155081 -56.981503 16.641293 4.708825 7.028628 -3.093096 11.694666 -11.779926 -7.206475 -9.850581 9.061555 23.565785 -7.476774 24.793224 45.231687 -11.010531 -15.139209 12.374019 -23.965245 4.058487 11.377148 -20.090956 
1.099626 1.033792 0.989381 -97.992217 -2.696782 80.150467 2.273630 -6.894944 -25.536258 0.152380 0.768322 3.506142 -4.291314 8.107055 -0.377270 0.000000 -0.000000 0.000000 -2.209289 -1.712942 28.188050 -2.328545 18.915496 7.044272 0.278887 -0.414745 -21.735993 0.000000 -0.000000 0.000000 2.939793 12.829244 8.198103 -4.200927 2.547223 7.515968 -3.235707 6.780126 -0.736201 3.998832 -0.216503 1.995250 -2.752688 -3.396969 2.830494 -21.015901 2.620179 1.331093 -57.655728 17.404536 4.268456 7.095068 -3.909143 11.696455 -12.833914 -7.617855 -10.284885 9.826417 23.449206 -7.222672 26.699361 46.209218 -9.886241 -14.854501 11.197550 -23.312740 5.278151 11.654005 -18.980150 
1.060862 1.030494 0.983420 -99.023755 -1.845885 81.855618 1.307799 -5.129168 -23.050016 0.662284 1.716503 4.985116 -5.173238 8.299265 0.310444 0.000000 -0.000000 0.000000 -2.325135 -1.757624 28.011570 -2.007933 18.811269 8.241317 0.699425 0.860722 -20.592903 0.000000 -0.000000 0.000000 2.902214 12.332227 6.777527 -3.939982 2.900852 5.313455 -3.114974 6.969841 -0.920813 4.060276 -0.213704 2.907581 -3.107607 -2.674161 3.179668 -21.050601 3.981194 1.626886 -57.751229 18.000291 3.101887 7.022573 -4.719817 11.759798 -13.619029 -7.603746 -9.665491 11.263021 22.743109 -5.847387 29.660457 46.249336 -8.158942 -14.617635 11.269651 -22.023295 6.279851 11.160860 -17.941945 
1.009188 1.025645 0.975599 -100.397531 -1.415042 83.309808 0.444365 -3.786689 -17.976771 -0.047570 3.000128 6.367452 -4.855284 10.411413 1.256864 0.000000 -0.000000 0.000000 -3.102161 -1.601561 28.390137 -1.741409 18.908566 10.061279 1.639565 2.156655 -18.101813 0.000000 -0.000000 0.000000 2.499035 11.826527 4.121070 -3.642662 3.084213 5.972287 -3.210070 7.377411 -1.134045 4.148409 0.595996 1.184246 -3.254600 -2.269286 3.390167 -20.770815 4.481551 1.243589 -58.989066 17.126852 2.670649 6.900012 -5.001573 11.042311 -12.307547 -7.318109 -9.826236 12.852841 22.032498 -5.213052 33.260205 46.170100 -5.675349 -14.279209 10.673791 -21.142985 6.785479 10.784069 -16.675804 
0.968128 1.020072 0.971654 -100.084802 -2.343988 85.070906 -1.326790 -3.593163 -16.227544 0.070816 5.727613 1.658091 -3.075318 10.455890 5.337551 0.000000 -0.000000 0.000000 -4.063436 -1.016449 26.970610 -1.858869 17.726089 13.086496 3.765287 3.125408 -13.860664 0.000000 -0.000000 0.000000 0.378645 11.244485 2.619403 -3.462849 2.542387 5.796702 -3.172467 6.966117 -1.438209 4.285666 1.211124 -0.429363 -3.184580 -1.960023 3.006789 -21.743650 4.416811 1.211539 -59.303589 15.040464 3.360569 7.438848 -4.235205 9.090176 -11.357729 -7.736222 -10.469978 15.261981 21.219708 -4.473131 37.172414 46.341029 -2.275830 -15.636795 9.382292 -22.173381 6.993112 10.699460 -14.197539 
0.928361 1.014767 0.975448 -97.946381 -4.005665 85.425757 -3.689830 -5.883047 -15.765183 -0.486763 5.431830 4.314342 -1.128281 9.732804 4.064532 0.000000 -0.000000 0.000000 -4.541599 -0.243139 24.661624 -1.315805 15.546838 19.801064 6.491408 2.405364 -7.059979 0.000000 -0.000000 0.000000 -1.628388 10.936584 2.232819 -3.698738 1.189768 6.974569 -3.507327 5.958823 -1.212100 4.165025 1.326678 -2.819101 -2.556702 -2.086193 2.449501 -23.788920 1.338288 1.421394 -58.869136 11.328212 4.985472 8.157355 -2.025187 5.398655 -10.608531 -7.883773 -9.606569 17.917688 20.946033 -3.943455 40.601980 43.570002 1.578389 -17.049336 10.616915 -24.357067 6.971346 10.561073 -15.039918 
0.891068 1.009145 0.985836 -96.268411 -4.905530 85.037295 -5.088080 -8.762626 -13.874107 -1.478130 4.194323 5.679186 2.069624 11.045992 2.746679 0.000000 -0.000000 0.000000 -3.697500 1.233478 19.909968 0.641653 15.650511 30.800761 7.802721 1.265355 2.016545 0.000000 -0.000000 0.000000 -2.468948 10.581541 4.031524 -3.573683 0.860494 6.229980 -3.651130 4.959078 -0.931947 2.909639 0.522446 -4.101951 -1.662508 -1.531636 1.976827 -25.436020 -2.533033 1.483078 -58.751267 7.397438 7.116933 8.486923 0.147027 2.771546 -8.141571 -6.806458 -8.143565 19.730418 20.792929 -3.173681 44.477642 38.377877 5.683161 -18.701070 12.023295 -26.222157 5.565409 10.162437 -15.981920 
0.854923 1.003513 0.993160 -96.167535 -4.752006 84.399738 -6.778315 -8.600641 -11.382796 -0.880170 2.679022 6.965112 4.159690 11.592704 0.837407 0.000000 -0.000000 0.000000 -2.545237 3.132191 13.738236 2.412387 14.276464 42.820312 6.188959 -0.841581 1.838895 0.000000 -0.000000 0.000000 -1.926066 8.819031 5.243593 -3.259938 1.447300 5.839930 -3.643015 4.719041 -0.790301 1.660429 0.826537 -4.210588 -2.072805 -0.308776 2.258388 -26.299776 -5.338989 1.090428 -59.560341 3.348881 8.695572 8.725908 0.717590 1.332930 -7.514268 -6.571760 -7.953990 20.713165 20.912982 -2.290358 47.210895 33.889446 8.136762 -17.790014 12.041000 -24.642878 7.600031 10.573122 -16.354166 
0.821367 1.000182 0.998220 -95.229483 -4.477705 82.887473 -7.793788 -8.723973 -7.798835 -1.087296 0.679986 7.365392 5.197437 12.126729 -1.174765 0.000000 -0.000000 0.000000 -2.495785 3.163031 8.469935 0.706213 9.765161 49.794809 3.558597 -5.371054 -3.678837 0.000000 -0.000000 0.000000 -1.899997 7.036276 7.898783 -2.776065 1.092082 4.567902 -3.010231 4.174198 0.119721 1.512905 2.969659 -5.578503 -2.794896 0.030211 3.857045 -26.075883 -6.758614 0.166235 -60.544303 -1.659290 10.404013 8.284921 -0.884360 0.792124 -7.381932 -6.691472 -9.348611 22.055990 20.363670 -2.203272 49.649059 30.765222 11.357092 -17.000416 10.334892 -21.525825 8.832813 10.380206 -14.063895 
0.786286 0.998606 1.003641 -93.833001 -3.627497 81.134611 -7.988832 -5.119887 -3.736951 -1.369232 -2.169768 7.260756 6.001551 10.057807 -3.220124 0.000000 -0.000000 0.000000 -2.287036 1.996978 4.138604 -1.211938 6.671177 51.740983 1.039477 -7.013927 -8.979670 0.000000 -0.000000 0.000000 -1.453409 5.101888 10.009293 -1.941968 0.334797 3.534838 -2.513785 3.204645 1.105555 1.122195 4.393953 -5.713283 -3.195862 0.634645 4.828878 -26.682830 -7.668379 -0.364030 -59.845937 -6.538090 12.582209 7.466170 -4.151734 -0.057144 -4.019619 -6.752553 -13.328762 24.934643 18.267720 -1.251950 51.304072 28.105391 13.148271 -16.497594 10.000827 -18.119378 7.926178 8.615831 -11.455973 
0.753377 0.996407 1.008061 -93.145977 -2.820007 79.971427 -7.769015 -3.543838 0.237778 -1.453825 -4.073359 6.024229 5.952316 9.959744 -4.712738 0.000000 -0.000000 0.000000 -2.091178 2.573834 -1.378787 -1.645918 3.719130 51.650206 1.244676 -7.525538 -13.251147 0.000000 -0.000000 0.000000 -1.172447 3.401792 11.337580 -1.152918 -0.012070 3.547929 -1.965137 2.234264 1.013479 0.422126 5.917657 -5.440376 -2.956517 0.738855 5.051125 -26.254539 -9.881847 -0.580862 -59.612944 -11.548656 12.987455 7.983641 -6.152407 -3.050570 -3.485262 -6.656454 -14.227580 26.475717 16.937854 -0.372089 53.418978 23.258600 13.976235 -17.019429 10.856458 -17.480109 8.852024 8.870688 -11.881607 
